# xmcd
#
# Track frame offsets:
#	150
#	17264
#	35905
#	60261
#	74107
#	88056
#	109939
#	124102
#	137532
#	155106
#	167227
#
# Disc length: 2470 seconds
#
# Revision: 1
# Processed by: cddbd v1.5.2PL0 Copyright (c) Steve Scherf et al.
# Submitted via: audiograbber 1.83.01
#
DISCID=9909a40b
DTITLE=Freedy Johnston - Rain On The City
DYEAR=2009
DGENRE=Rock
TTITLE0=Lonely Penny
TTITLE1=Don't Fall in Love with a Lonely Girl
TTITLE2=Rain on the City
TTITLE3=Venus is Her Name
TTITLE4=The Other Side of Love
TTITLE5=The Devil Raises His Own
TTITLE6=Livin' Too Close to the Rio Grande
TTITLE7=Central Station
TTITLE8=The Kind of Love We're In
TTITLE9=It's Gonna Come Back to You
TTITLE10=What You Cannot See, You Cannot Fight
EXTD=
EXTT0=
EXTT1=
EXTT2=
EXTT3=
EXTT4=
EXTT5=
EXTT6=
EXTT7=
EXTT8=
EXTT9=
EXTT10=
PLAYORDER=
